<?xml version="1.0" standalone="no"?>
<!DOCTYPE svg PUBLIC "-//W3C//DTD SVG 20010904//EN"
 "http://www.w3.org/TR/2001/REC-SVG-20010904/DTD/svg10.dtd">
<svg version="1.0" xmlns="http://www.w3.org/2000/svg"
 width="600.000000pt" height="327.000000pt" viewBox="0 0 600.000000 327.000000"
 preserveAspectRatio="xMidYMid meet">
<g transform="translate(0.000000,327.000000) scale(0.050000,-0.050000)"
fill="#000000" stroke="none">
<path d="M4199 5109 c-24 -29 -21 -44 17 -110 30 -53 44 -110 44 -183 0 -250
76 -599 220 -1016 120 -348 127 -462 50 -840 -59 -290 -61 -361 -16 -531 l34
-129 -73 -255 c-108 -376 -143 -585 -107 -622 50 -49 86 -13 100 100 12 93
148 655 163 674 3 4 81 -57 172 -135 183 -156 282 -291 366 -500 59 -147 99
-183 148 -134 79 79 -219 541 -483 748 -232 183 -280 375 -192 766 80 359 68
543 -59 908 -118 339 -132 392 -183 700 -43 257 -43 255 53 170 202 -177 546
-214 969 -103 317 83 569 279 467 364 -25 21 -44 11 -117 -66 -101 -105 -228
-160 -512 -219 -433 -91 -749 18 -925 319 -74 125 -97 141 -136 94z"/>
<path d="M7704 5077 c-212 -390 -550 -497 -1100 -348 -228 62 -275 86 -379
193 -79 82 -145 88 -145 15 0 -44 170 -196 264 -237 455 -195 967 -187 1203
20 41 36 79 61 84 56 34 -35 -105 -647 -211 -925 -134 -353 -144 -472 -70
-843 89 -446 67 -599 -105 -757 -329 -301 -379 -360 -474 -559 -97 -202 -109
-282 -43 -282 28 0 53 33 90 121 118 275 187 367 417 564 144 124 138 122 155
40 8 -36 37 -145 64 -243 28 -99 61 -247 74 -330 20 -130 30 -153 65 -158 90
-13 78 111 -56 604 l-81 297 32 114 c44 156 40 258 -20 566 -71 360 -62 507
51 805 130 346 221 759 221 1010 0 75 14 137 44 193 37 70 40 88 18 115 -39
46 -60 40 -98 -31z"/>
<path d="M5793 4686 c-26 -26 -12 -84 24 -95 60 -19 109 7 80 42 -33 40 -89
68 -104 53z"/>
<path d="M6112 4643 c-32 -36 -31 -38 4 -48 48 -12 104 18 104 56 0 41 -68 36
-108 -8z"/>
<path d="M5954 4588 c-8 -8 -14 -97 -14 -198 0 -212 -28 -257 -170 -280 -154
-24 -361 -77 -445 -112 l-85 -37 -69 69 c-63 63 -111 171 -111 253 0 54 -54
87 -92 56 -60 -50 21 -295 132 -396 l61 -56 -40 -88 c-72 -160 -37 -384 77
-487 33 -30 34 -41 10 -108 -62 -173 -12 -448 91 -504 65 -34 445 -103 498
-90 25 6 82 34 125 61 l78 50 78 -50 c116 -73 151 -76 379 -34 336 62 427 209
341 551 -20 81 -18 91 44 179 87 123 102 282 40 423 l-42 95 77 74 c100 98
171 322 117 375 -42 43 -94 4 -94 -71 -1 -76 -67 -210 -126 -256 l-51 -40
-167 55 c-91 31 -229 66 -306 78 -207 33 -227 59 -234 298 -6 191 -39 252
-102 190z m-14 -818 c0 -350 12 -337 -322 -380 -125 -16 -246 -34 -268 -40
-144 -42 -202 424 -64 514 42 28 340 113 444 127 55 8 123 26 150 41 28 14 52
27 55 27 3 1 5 -129 5 -289z m220 248 c28 -10 118 -30 200 -46 348 -66 449
-149 449 -372 0 -107 -100 -267 -156 -251 -24 6 -146 25 -272 42 -349 44 -317
5 -326 404 -4 230 -1 264 25 253 17 -7 53 -21 80 -30z m-208 -710 c-7 -17 -12
-139 -12 -270 l0 -239 -89 -43 c-97 -47 -443 -11 -508 53 -64 63 -74 321 -15
402 17 22 88 41 233 61 115 15 241 36 279 46 109 27 126 25 112 -10z m318 -9
c77 -10 200 -28 274 -40 l134 -22 23 -110 c53 -258 -2 -336 -268 -380 -194
-32 -198 -32 -284 9 l-87 42 -6 272 c-6 264 -5 272 34 260 22 -7 103 -20 180
-31z"/>
<path d="M5947 2520 c-112 -45 -69 -116 68 -112 69 2 96 11 101 34 11 59 -94
108 -169 78z"/>
<path d="M5260 2490 c-77 -92 316 -1080 430 -1080 65 0 57 62 -27 215 -111
203 -231 500 -273 676 -51 216 -77 253 -130 189z"/>
<path d="M6666 2496 c-11 -14 -27 -66 -34 -115 -24 -153 -108 -380 -245 -656
-129 -260 -145 -335 -72 -321 89 16 425 802 432 1010 3 99 -36 138 -81 82z"/>
</g>
</svg>
