<?xml version="1.0" standalone="no"?>
<!DOCTYPE svg PUBLIC "-//W3C//DTD SVG 20010904//EN"
 "http://www.w3.org/TR/2001/REC-SVG-20010904/DTD/svg10.dtd">
<svg version="1.0" xmlns="http://www.w3.org/2000/svg"
 width="612.000000pt" height="744.000000pt" viewBox="0 0 612.000000 744.000000"
 preserveAspectRatio="xMidYMid meet">
<g transform="translate(0.000000,744.000000) scale(0.100000,-0.100000)"
fill="#000000" stroke="none">
<path d="M5193 7428 l2 -13 -42 -3 c-23 -2 -47 -10 -53 -18 -7 -7 -25 -14 -39
-14 -15 0 -36 -7 -47 -15 -10 -8 -29 -15 -40 -15 -12 0 -27 -7 -34 -15 -7 -8
-24 -15 -37 -15 -14 0 -37 -6 -51 -14 -15 -8 -54 -22 -87 -31 -33 -10 -72 -24
-87 -31 -14 -8 -37 -14 -51 -14 -13 0 -30 -7 -37 -15 -7 -8 -27 -15 -44 -15
-17 0 -40 -7 -50 -15 -11 -8 -34 -15 -50 -15 -17 -1 -42 -7 -56 -15 -14 -8
-35 -14 -46 -15 -12 0 -27 -7 -34 -15 -7 -8 -22 -15 -34 -15 -12 0 -31 -7 -42
-15 -10 -8 -29 -15 -40 -15 -12 0 -27 -7 -34 -15 -7 -8 -23 -15 -37 -15 l-24
0 -5 -15 -6 -15 -28 0 c-15 0 -33 -7 -40 -15 -7 -8 -23 -15 -35 -15 -12 0 -28
-7 -35 -15 l-12 -15 -33 0 -33 0 -12 -15 -12 -15 -33 0 -33 0 -12 -15 c-7 -8
-25 -15 -40 -15 -15 0 -33 -7 -40 -15 -7 -8 -23 -15 -36 -15 -22 0 -70 -17
-126 -46 -14 -8 -34 -14 -45 -14 -10 0 -27 -7 -37 -15 -11 -8 -32 -15 -46 -15
-14 0 -35 -7 -46 -15 -10 -8 -29 -15 -40 -15 -12 0 -27 -7 -34 -15 -7 -8 -25
-15 -41 -15 -15 0 -34 -7 -43 -15 -8 -8 -25 -15 -38 -15 -13 0 -33 -7 -44 -15
-10 -8 -26 -15 -35 -15 -9 0 -22 -7 -29 -15 -7 -8 -24 -15 -39 -15 -14 -1 -37
-7 -51 -15 -14 -8 -37 -14 -51 -15 -15 0 -32 -7 -39 -15 -7 -8 -22 -15 -34
-15 -12 0 -31 -7 -42 -15 -10 -8 -28 -15 -40 -15 -11 0 -29 -7 -40 -15 -10 -8
-29 -15 -40 -15 -12 0 -27 -7 -34 -15 -7 -8 -23 -15 -35 -15 -12 0 -28 -7 -35
-15 -7 -8 -22 -15 -34 -15 -12 0 -31 -7 -42 -15 -10 -8 -29 -15 -40 -15 -12 0
-27 -7 -34 -15 -7 -8 -19 -15 -26 -15 -17 0 -98 -41 -102 -52 -2 -4 -19 -8
-37 -8 l-33 0 -6 -15 c-3 -8 -14 -15 -24 -15 -11 0 -25 -7 -32 -15 -7 -8 -23
-15 -35 -15 -12 0 -28 -7 -35 -15 -7 -8 -19 -15 -27 -15 -13 0 -48 -15 -93
-41 -8 -5 -22 -12 -30 -15 -8 -3 -22 -10 -30 -15 -8 -5 -22 -12 -30 -15 -8 -3
-22 -10 -30 -15 -8 -5 -22 -12 -30 -15 -27 -10 -85 -36 -100 -45 -8 -5 -22
-12 -30 -15 -25 -10 -84 -36 -100 -45 -8 -4 -35 -18 -60 -29 -25 -12 -52 -26
-60 -31 -8 -5 -27 -14 -42 -20 -16 -6 -28 -15 -28 -20 0 -5 -9 -9 -19 -9 -11
0 -26 -7 -35 -15 -8 -8 -18 -15 -23 -15 -11 0 -137 -63 -143 -71 -3 -4 -17
-13 -30 -19 -14 -5 -38 -19 -55 -30 -16 -11 -37 -23 -45 -27 -8 -3 -41 -26
-72 -50 -31 -24 -60 -43 -65 -43 -5 0 -23 -13 -41 -30 -18 -16 -35 -30 -37
-30 -4 0 -90 -76 -120 -106 -57 -58 -105 -126 -105 -148 0 -7 -7 -16 -15 -20
-8 -3 -15 -14 -15 -24 0 -11 -7 -25 -15 -32 -8 -7 -15 -23 -15 -37 0 -13 -7
-35 -16 -48 l-16 -24 5 -108 c4 -102 18 -179 38 -213 5 -8 12 -22 15 -30 9
-27 62 -125 95 -175 10 -16 23 -40 29 -52 5 -13 14 -23 20 -23 5 0 10 -9 10
-20 0 -11 7 -23 15 -26 8 -4 15 -16 15 -29 0 -13 7 -25 15 -29 8 -3 15 -12 15
-19 0 -8 7 -20 15 -27 8 -7 15 -21 15 -31 0 -11 5 -19 10 -19 6 0 14 -8 18
-18 7 -19 77 -101 165 -195 26 -28 47 -55 47 -59 0 -4 7 -8 15 -8 8 0 15 -4
15 -10 0 -13 37 -50 50 -50 6 0 10 -6 10 -14 0 -14 218 -226 232 -226 4 0 8
-7 8 -15 0 -8 4 -15 10 -15 5 0 22 -12 38 -27 109 -104 153 -145 197 -182 28
-23 64 -55 80 -70 17 -15 62 -54 100 -86 39 -33 88 -76 110 -96 22 -21 51 -48
65 -61 14 -13 51 -55 82 -93 31 -39 80 -94 108 -124 l51 -54 -5 -14 -5 -13 15
0 c18 0 53 -38 54 -58 0 -7 7 -15 15 -18 8 -4 15 -14 15 -24 0 -10 3 -20 8
-22 8 -3 52 -64 52 -72 0 -3 20 -35 44 -70 24 -36 47 -74 51 -85 3 -12 11 -21
16 -21 5 0 9 -6 9 -14 0 -7 7 -19 15 -26 8 -7 15 -20 15 -30 0 -10 7 -23 15
-30 8 -7 15 -20 15 -30 0 -10 7 -23 15 -30 8 -7 15 -23 15 -35 0 -12 7 -28 15
-35 8 -7 15 -20 15 -30 0 -10 7 -23 15 -30 8 -7 15 -23 15 -35 0 -12 7 -28 15
-35 8 -7 15 -22 15 -34 0 -12 6 -30 14 -41 7 -11 16 -32 20 -47 3 -16 11 -28
16 -28 6 0 10 -17 10 -38 0 -21 4 -42 9 -47 6 -6 14 -28 20 -50 9 -38 17 -63
42 -137 6 -18 15 -60 19 -93 4 -34 12 -70 18 -82 7 -12 12 -41 12 -65 1 -24 7
-54 15 -68 8 -14 14 -36 15 -50 0 -14 7 -38 15 -54 8 -15 15 -41 15 -57 0 -27
15 -69 46 -132 8 -16 14 -36 14 -46 0 -9 7 -26 15 -37 8 -10 15 -29 15 -40 0
-12 7 -27 15 -34 8 -7 15 -24 15 -37 0 -14 7 -38 15 -54 8 -16 22 -42 30 -58
8 -16 15 -38 15 -49 0 -11 7 -25 15 -32 8 -7 15 -17 15 -22 0 -6 14 -30 30
-55 17 -24 30 -46 30 -49 0 -3 12 -19 27 -35 l28 -29 28 0 c36 0 74 29 98 75
l19 35 0 127 1 128 15 -40 c9 -22 19 -55 24 -74 5 -18 13 -38 19 -44 6 -6 11
-20 11 -30 0 -10 6 -31 14 -45 7 -15 23 -45 34 -67 11 -22 29 -56 41 -75 11
-19 25 -45 31 -57 5 -13 14 -23 20 -23 5 0 10 -5 10 -11 0 -17 58 -88 119
-146 l55 -53 42 0 42 0 31 39 31 39 0 86 0 87 -15 36 c-8 19 -15 50 -15 67 0
17 -7 44 -15 60 -8 15 -15 38 -15 50 0 12 -6 30 -14 41 -7 11 -16 37 -19 58
l-6 39 14 -12 c8 -7 15 -18 15 -25 0 -8 3 -15 8 -17 4 -2 17 -23 30 -48 36
-70 110 -182 125 -188 4 -2 7 -8 7 -14 0 -34 138 -178 171 -178 10 0 20 -4 24
-10 l6 -9 27 11 c15 7 35 18 45 26 l17 15 0 67 0 66 -15 20 c-8 10 -15 29 -15
40 0 12 -7 27 -15 34 -8 7 -15 23 -15 35 0 12 -7 28 -15 35 -8 7 -15 21 -15
32 0 11 -6 32 -14 46 -7 15 -28 59 -45 97 -18 39 -39 83 -47 98 -8 16 -14 35
-14 43 0 8 -7 17 -15 20 -8 4 -15 16 -15 28 l1 21 25 -30 c41 -50 44 -54 44
-60 0 -4 12 -21 28 -38 165 -185 237 -257 256 -257 8 0 16 -3 18 -7 2 -5 28
-25 58 -45 l55 -38 65 0 64 0 38 26 38 27 0 67 0 68 -15 6 c-8 3 -15 14 -15
24 0 11 -7 25 -15 32 -8 7 -15 20 -15 30 0 10 -7 23 -15 30 -8 7 -15 16 -15
21 0 14 -62 100 -76 106 -8 3 -14 11 -14 17 0 18 -83 109 -288 316 l-184 185
42 3 41 3 16 -13 c31 -26 259 -38 381 -21 l63 9 24 29 c28 34 32 67 10 85 -8
7 -15 17 -15 22 0 12 -37 45 -65 58 -11 6 -33 19 -50 30 -16 11 -40 24 -52 30
-13 5 -23 14 -23 20 0 5 -11 10 -24 10 l-24 0 -6 15 c-3 8 -14 15 -24 15 -11
0 -25 7 -32 15 -7 8 -21 15 -31 15 -10 0 -22 6 -26 13 -4 7 -28 24 -53 36 -53
27 -70 37 -127 74 -24 15 -45 27 -48 27 -10 0 -145 104 -145 112 0 5 -4 8 -9
8 -8 0 -51 34 -92 73 -11 9 -23 17 -29 17 -5 0 -13 6 -17 13 -4 7 -37 35 -73
62 -36 28 -76 61 -90 75 -14 14 -54 50 -90 80 -123 105 -292 295 -313 353 -4
9 -11 17 -17 17 -5 0 -10 8 -10 19 0 10 -7 24 -15 31 -8 7 -15 20 -15 30 0 10
-7 23 -15 30 -8 7 -15 18 -15 26 0 7 -6 19 -12 26 -17 18 -37 49 -44 68 -6 15
-37 81 -53 110 -30 58 -41 84 -41 103 0 12 -7 31 -15 41 -8 11 -15 34 -15 52
l0 32 -15 12 -15 12 0 37 c0 20 -7 49 -15 65 -8 15 -15 40 -15 55 0 15 -7 36
-15 47 -8 10 -15 33 -15 50 0 17 -7 37 -15 44 l-15 12 0 37 c0 21 -7 46 -15
57 -8 10 -15 33 -15 49 0 17 -7 39 -15 49 -8 11 -15 36 -15 57 l0 37 -15 12
c-8 7 -15 22 -15 34 0 12 -7 31 -15 42 -8 10 -15 29 -15 40 0 12 -7 24 -15 28
l-15 5 0 25 0 24 -15 6 -15 5 0 25 c0 14 -4 27 -9 31 -6 3 -21 30 -35 60 -14
29 -31 57 -36 60 -6 3 -10 17 -10 30 0 12 -7 25 -15 29 -8 3 -15 13 -15 22 0
9 -14 33 -30 54 -16 21 -30 42 -30 47 0 5 -13 23 -30 41 -16 18 -30 35 -30 38
0 9 -75 104 -82 104 -4 0 -8 4 -8 10 0 5 -15 25 -32 43 -18 19 -43 47 -55 63
-12 16 -56 65 -98 109 l-76 80 12 4 c6 2 30 -3 53 -10 l41 -14 190 0 190 0 95
13 c211 28 269 35 355 43 114 10 258 34 284 48 11 6 38 11 60 11 22 0 52 5 68
11 15 6 51 15 78 19 53 8 103 24 148 46 16 8 41 14 56 14 15 0 36 7 47 15 10
8 32 15 47 15 l28 0 5 15 c4 8 16 15 29 15 12 0 28 7 35 15 7 8 17 15 23 15
15 0 96 40 103 51 3 5 13 9 24 9 10 0 20 7 24 15 3 8 11 15 19 15 38 0 187 99
265 177 35 35 67 63 73 63 5 0 9 4 9 9 0 5 23 32 51 61 l51 52 37 -6 c20 -3
59 -10 86 -15 28 -6 93 -10 145 -10 l96 -1 57 15 c32 8 82 15 111 15 30 0 70
7 89 15 20 8 49 15 65 15 16 0 35 7 42 15 l12 15 37 0 c20 1 47 7 61 15 14 8
40 14 58 15 l33 0 5 15 6 15 33 0 33 0 12 15 12 15 32 0 c18 0 41 7 52 15 10
8 33 15 50 15 17 0 37 7 44 15 7 8 23 15 35 15 12 0 28 7 35 15 7 8 23 15 35
15 12 0 28 7 35 15 7 8 20 15 29 15 10 0 26 7 37 15 l19 14 46 1 47 0 12 15
c7 8 19 15 26 15 l14 0 0 35 0 35 -11 0 c-22 0 -119 -32 -124 -41 -4 -5 -16
-9 -29 -9 -12 0 -31 -7 -42 -15 -10 -8 -26 -15 -35 -15 -9 0 -22 -7 -29 -15
-7 -8 -23 -15 -35 -15 -12 0 -28 -7 -35 -15 -7 -8 -20 -15 -29 -15 -9 0 -29
-7 -45 -15 -15 -8 -41 -15 -57 -15 l-30 0 -5 -15 -6 -15 -38 0 -38 0 -12 -15
c-7 -8 -27 -15 -44 -15 -17 0 -40 -7 -50 -15 -11 -8 -32 -15 -48 -15 -15 0
-42 -6 -60 -14 -65 -27 -136 -46 -171 -46 l-35 0 -12 -15 c-6 -8 -24 -14 -38
-14 -15 0 -132 0 -261 -1 l-233 -1 -14 11 c-22 19 -49 2 -120 -78 -38 -42 -82
-89 -99 -104 -76 -70 -111 -99 -127 -104 -10 -3 -18 -9 -18 -14 0 -4 -8 -10
-17 -14 -10 -3 -27 -11 -38 -17 -35 -21 -50 -29 -62 -34 -7 -3 -19 -7 -25 -10
-7 -3 -26 -14 -43 -25 -16 -11 -42 -25 -57 -31 -16 -6 -28 -15 -28 -20 0 -5
-13 -9 -29 -9 -16 0 -34 -7 -41 -15 -7 -8 -20 -15 -29 -15 -10 0 -26 -7 -37
-15 -10 -8 -29 -15 -40 -15 -12 0 -27 -7 -34 -15 l-12 -15 -37 0 c-20 0 -45
-7 -55 -15 -11 -8 -34 -15 -50 -15 -17 0 -40 -7 -50 -15 l-20 -15 -45 0 c-25
0 -59 -7 -75 -15 -15 -8 -48 -15 -73 -15 -24 0 -54 -5 -65 -11 -25 -14 -189
-36 -353 -49 -66 -5 -136 -14 -155 -20 l-35 -10 -285 -2 -285 -1 -48 16 c-26
10 -54 17 -62 17 -8 0 -18 7 -23 16 l-9 16 -24 -4 -24 -3 -3 -18 -4 -17 38
-33 c60 -51 244 -242 244 -252 0 -3 14 -19 30 -35 16 -16 30 -32 30 -36 0 -4
6 -12 14 -18 20 -17 166 -214 166 -224 0 -6 7 -12 15 -16 8 -3 15 -15 15 -26
0 -11 4 -20 9 -20 11 0 51 -75 51 -94 0 -7 7 -19 15 -26 8 -7 15 -21 15 -32 0
-10 7 -21 15 -24 8 -4 15 -14 15 -24 0 -10 7 -23 15 -30 8 -7 15 -20 15 -30 0
-10 7 -23 15 -30 8 -7 15 -20 15 -29 0 -10 7 -26 15 -37 8 -10 15 -26 15 -35
0 -9 7 -22 15 -29 8 -7 15 -24 15 -39 1 -14 7 -37 15 -51 8 -14 14 -39 15 -56
0 -16 7 -39 15 -50 8 -10 15 -33 15 -50 0 -17 7 -37 15 -44 l15 -12 0 -37 c0
-21 7 -46 15 -57 8 -10 15 -33 15 -50 0 -17 7 -37 15 -44 l15 -12 0 -42 0 -42
15 -20 c8 -10 15 -33 15 -49 0 -17 5 -36 12 -43 6 -6 14 -30 19 -54 9 -53 32
-115 47 -130 7 -7 12 -25 12 -40 l0 -29 15 -5 15 -6 0 -24 0 -25 15 -5 c8 -4
15 -14 15 -24 0 -10 7 -23 15 -30 8 -7 15 -21 15 -31 0 -10 4 -20 9 -24 6 -3
20 -27 33 -53 13 -26 27 -50 31 -53 10 -7 31 -42 46 -76 6 -13 15 -23 21 -23
5 0 10 -5 10 -11 0 -27 206 -259 230 -259 6 0 10 -7 10 -15 0 -8 3 -15 8 -15
4 0 36 -27 71 -60 36 -33 68 -60 73 -60 5 0 22 -14 38 -30 16 -17 34 -30 39
-30 5 0 11 -4 13 -9 4 -11 121 -111 130 -111 4 0 22 -15 41 -32 43 -43 99 -88
108 -88 5 0 21 -12 36 -26 15 -14 37 -30 48 -35 25 -11 55 -30 73 -47 7 -6 19
-12 26 -12 8 0 19 -7 26 -15 7 -8 20 -15 30 -15 10 0 20 -7 24 -15 l5 -15 25
0 24 0 6 -15 c3 -8 14 -15 25 -15 10 0 21 -7 25 -15 3 -8 14 -15 24 -15 11 0
25 -7 32 -15 7 -8 17 -15 22 -15 6 0 30 -13 55 -30 24 -16 50 -30 57 -30 15 0
96 -73 96 -87 0 -5 -9 -18 -19 -27 l-19 -18 -152 0 -151 0 -12 10 c-13 11 -96
31 -163 39 l-42 5 -26 -17 c-40 -26 -36 -32 121 -191 155 -158 214 -221 303
-323 30 -34 70 -79 87 -99 18 -20 33 -43 33 -50 0 -7 6 -15 14 -18 8 -3 17
-16 20 -30 4 -13 11 -24 16 -24 6 0 10 -8 10 -19 0 -10 7 -24 15 -31 8 -7 15
-23 15 -35 0 -12 7 -28 15 -35 l15 -12 0 -34 0 -34 -14 0 c-7 0 -19 -7 -26
-15 -22 -26 -126 -6 -151 28 -6 8 -37 28 -69 44 -22 10 -35 22 -93 82 -111
114 -150 157 -166 181 -17 26 -41 56 -77 97 -12 13 -44 53 -70 88 l-49 65 -28
0 -28 0 -5 -15 -6 -15 31 -50 c17 -28 31 -56 31 -63 0 -7 7 -22 15 -33 8 -10
15 -26 15 -35 0 -9 7 -22 15 -29 8 -7 15 -21 15 -31 0 -9 6 -24 13 -31 8 -7
17 -26 21 -41 3 -15 11 -27 16 -27 6 0 10 -11 10 -24 0 -13 7 -29 15 -36 8 -7
15 -21 15 -32 0 -11 6 -32 13 -46 24 -47 45 -96 52 -119 3 -13 11 -23 16 -23
5 0 9 -12 9 -26 0 -14 7 -41 16 -59 8 -18 14 -48 12 -67 l-3 -33 -27 -3 -27
-3 -19 18 c-11 10 -31 28 -44 40 -13 12 -37 41 -54 65 -16 24 -32 44 -36 46
-5 2 -8 10 -8 17 0 8 -6 18 -13 22 -14 9 -32 37 -47 71 -5 12 -14 22 -19 22
-5 0 -12 11 -15 25 -4 14 -11 25 -16 25 -6 0 -10 8 -10 19 0 10 -7 24 -15 31
-8 7 -15 19 -15 27 0 7 -7 16 -15 19 -8 4 -15 10 -15 15 0 12 -42 73 -52 77
-5 2 -8 8 -8 14 0 6 -13 27 -30 48 -16 21 -30 42 -30 46 -1 5 -11 22 -24 38
l-24 29 -16 -6 -16 -6 0 -29 c0 -16 7 -35 15 -42 8 -7 15 -22 15 -34 0 -12 7
-31 15 -42 8 -10 15 -25 15 -31 0 -21 43 -113 52 -113 4 0 8 -15 8 -33 0 -18
7 -42 15 -53 8 -10 15 -30 15 -44 0 -14 6 -34 14 -45 7 -11 16 -51 19 -88 2
-38 10 -74 16 -80 l11 -11 0 -62 0 -62 -15 -12 c-8 -7 -15 -19 -15 -26 l0 -14
-20 0 -21 0 -70 70 c-38 38 -74 80 -80 92 -11 25 -20 41 -62 105 -15 24 -27
49 -27 57 0 7 -7 19 -15 26 -8 7 -15 20 -15 30 0 10 -7 23 -15 30 -8 7 -15 22
-15 34 0 12 -7 31 -15 42 -8 10 -15 29 -15 40 0 12 -7 27 -15 34 -8 7 -15 23
-15 36 0 21 -35 101 -49 114 -4 3 -13 21 -22 40 -76 165 -70 157 -103 144
l-16 -6 0 -28 c0 -16 5 -32 10 -35 6 -3 10 -16 10 -28 0 -12 6 -34 14 -49 8
-14 17 -46 21 -70 4 -24 12 -49 18 -56 l10 -13 -6 -112 c-11 -213 -55 -243
-133 -90 -20 41 -41 76 -46 79 -4 3 -8 16 -8 28 0 13 -7 29 -15 36 -8 7 -15
22 -15 34 0 11 -7 30 -15 40 -8 11 -15 30 -15 42 0 13 -7 29 -15 38 -8 8 -15
29 -15 46 l0 31 -15 5 -15 6 0 33 0 33 -15 6 -15 5 0 38 c-1 21 -7 49 -15 63
-8 14 -15 39 -15 55 0 17 -7 41 -15 55 -8 14 -15 39 -15 55 0 17 -7 41 -15 55
-8 14 -14 44 -15 68 0 24 -5 53 -11 64 -6 11 -15 44 -19 72 -7 49 -12 65 -40
146 -7 19 -15 52 -17 72 -3 21 -11 42 -19 49 -8 6 -14 24 -14 38 0 15 -7 36
-15 47 -8 10 -15 28 -15 40 0 11 -7 29 -15 40 -8 10 -15 29 -15 41 0 12 -4 24
-9 27 -5 4 -19 27 -31 54 -12 26 -26 54 -31 62 -5 8 -12 22 -15 30 -10 26 -36
85 -45 100 -5 8 -13 25 -18 37 -6 11 -15 24 -20 28 -6 3 -11 14 -11 25 0 10
-7 20 -15 24 -8 3 -15 15 -15 26 0 11 -5 20 -11 20 -5 0 -15 13 -20 30 -6 16
-14 30 -19 30 -4 0 -10 8 -14 18 -3 9 -15 31 -26 47 -11 17 -23 37 -27 45 -3
8 -19 31 -35 51 -15 20 -28 42 -28 48 0 6 -7 11 -15 11 -8 0 -15 6 -15 13 0 6
-14 26 -30 44 -17 18 -30 34 -30 36 0 2 -21 26 -47 54 -27 27 -61 67 -78 87
-62 75 -235 246 -251 246 -2 0 -21 17 -42 39 -20 21 -66 63 -102 92 -83 69
-107 90 -191 170 -38 36 -85 79 -104 95 -66 56 -211 201 -334 334 -187 205
-231 258 -231 284 0 9 -7 19 -15 22 -8 4 -15 13 -15 21 0 8 -13 32 -30 53 -16
21 -30 43 -30 49 0 15 -31 64 -47 74 -7 4 -13 16 -13 25 0 10 -5 23 -11 29
-13 13 -29 41 -59 103 -12 25 -29 60 -37 78 l-17 33 0 148 -1 149 17 19 c10
11 18 29 18 40 0 11 7 26 15 33 8 7 15 18 15 24 0 6 20 34 45 63 25 28 45 54
45 57 0 10 39 46 50 46 5 0 10 4 10 8 0 5 27 28 60 52 33 24 60 47 60 52 0 4
5 8 10 8 12 0 73 41 78 53 2 4 10 7 18 7 8 0 14 4 14 9 0 5 14 14 30 20 17 5
30 14 30 19 0 6 11 13 25 16 14 4 25 11 25 16 0 6 9 10 20 10 11 0 20 4 20 9
0 5 14 14 30 20 17 5 30 15 30 20 0 6 11 11 24 11 13 0 29 7 36 15 7 8 20 15
30 15 10 0 23 7 30 15 7 8 21 15 32 15 10 0 21 7 24 15 4 8 16 15 29 15 12 0
28 7 35 15 7 8 17 15 23 15 15 0 96 40 103 51 3 5 13 9 23 9 10 0 24 7 31 15
7 8 20 15 30 15 10 0 23 7 30 15 7 8 20 15 28 15 19 0 159 67 167 80 4 6 15
10 25 10 10 0 25 7 34 15 8 8 23 15 34 15 11 0 25 7 32 15 7 8 23 15 35 15 12
0 28 7 35 15 7 8 19 15 27 15 8 0 27 6 41 13 15 8 45 22 67 32 22 9 47 21 55
26 8 5 22 12 30 15 8 3 22 10 30 15 8 5 22 12 30 15 24 9 83 35 113 50 16 8
37 14 47 14 9 0 23 7 30 15 7 8 25 15 40 15 15 0 33 7 40 15 7 8 23 15 35 15
12 0 28 7 35 15 l12 15 35 0 34 0 5 15 6 15 28 0 c15 0 33 7 40 15 l12 15 33
0 33 0 12 15 c7 8 26 15 42 15 l29 0 5 15 6 15 28 0 c15 0 33 7 40 15 7 8 26
15 42 15 l29 0 5 15 6 15 33 0 33 0 12 15 c7 8 25 15 39 15 15 0 36 7 47 15
10 8 31 15 45 15 15 0 32 7 39 15 l12 15 33 0 33 0 6 15 5 15 34 0 35 0 12 15
c7 8 25 15 40 15 15 0 33 7 40 15 7 8 25 15 40 15 15 0 33 7 40 15 7 8 27 15
44 15 17 0 40 7 50 15 11 8 29 15 41 15 12 0 30 7 41 15 10 8 27 15 37 15 17
0 50 14 97 41 8 5 22 12 30 15 8 3 28 12 43 20 16 7 37 14 47 14 9 0 23 7 30
15 7 8 25 15 40 15 15 0 33 7 40 15 7 8 25 15 39 15 15 0 36 7 47 15 10 8 31
15 45 15 15 0 40 7 55 15 16 8 38 15 50 15 11 0 29 7 40 15 10 8 31 15 45 15
14 0 34 7 45 15 10 8 31 15 45 15 15 0 32 7 39 15 l12 15 35 0 34 0 5 13 5 14
29 0 c16 0 38 7 48 16 10 10 28 17 39 17 11 0 26 7 33 15 7 8 25 15 39 15 15
0 36 7 47 15 l19 14 55 1 c66 0 75 6 85 48 l7 32 -51 0 -51 0 3 -12z"/>
</g>
</svg>
