<?xml version="1.0" standalone="no"?>
<!DOCTYPE svg PUBLIC "-//W3C//DTD SVG 20010904//EN"
 "http://www.w3.org/TR/2001/REC-SVG-20010904/DTD/svg10.dtd">
<svg version="1.0" xmlns="http://www.w3.org/2000/svg"
 width="1800.000000pt" height="981.000000pt" viewBox="0 0 1800.000000 981.000000"
 preserveAspectRatio="xMidYMid meet">
<g transform="translate(0.000000,981.000000) scale(0.100000,-0.100000)"
fill="#000000" stroke="none">
<path d="M9445 7622 c-76 -33 -100 -50 -160 -114 -90 -96 -105 -115 -176 -212
-35 -49 -90 -124 -121 -167 -57 -78 -88 -157 -88 -226 0 -42 32 -125 63 -166
35 -46 34 -64 -4 -103 -28 -29 -31 -40 -36 -110 -6 -91 5 -129 57 -188 63 -71
180 -108 277 -87 87 19 192 52 199 62 3 5 18 9 33 9 16 0 45 7 64 15 57 24
122 15 199 -25 30 -17 132 -47 194 -59 50 -9 74 -9 135 5 41 9 81 17 89 17 16
2 49 -57 50 -89 0 -12 6 -44 14 -70 54 -187 73 -438 52 -684 -7 -87 -47 -248
-81 -325 -7 -16 -21 -66 -30 -110 -9 -44 -23 -109 -32 -145 -10 -44 -16 -118
-16 -227 0 -90 -5 -163 -9 -163 -5 0 -41 33 -81 74 -63 64 -111 102 -215 168
-61 38 -200 100 -257 114 -11 3 -42 11 -70 19 -116 32 -176 40 -315 40 -140
-1 -172 -5 -335 -45 -27 -7 -70 -21 -94 -30 -53 -21 -59 -20 -89 23 -21 32
-138 154 -198 207 -42 38 -151 120 -159 120 -3 0 -21 11 -38 24 -18 14 -43 29
-57 35 -14 6 -32 15 -40 20 -35 22 -151 71 -169 71 -10 0 -24 7 -31 15 -7 8
-20 15 -29 15 -9 0 -61 12 -116 26 -87 23 -126 27 -295 31 -156 4 -210 1 -270
-12 -142 -31 -129 -32 -190 25 -54 51 -204 170 -214 170 -3 0 -22 12 -43 26
-21 14 -47 30 -58 35 -11 5 -54 27 -95 49 -41 22 -80 40 -86 40 -6 0 -17 7
-24 15 -7 8 -21 15 -31 15 -17 0 -66 18 -111 41 -31 16 -103 28 -126 22 -13
-3 -30 -19 -38 -35 -13 -26 -13 -31 2 -57 16 -28 88 -60 133 -61 9 0 25 -7 35
-15 11 -8 26 -15 33 -15 19 0 209 -92 256 -124 21 -14 39 -26 41 -26 5 0 85
-54 169 -114 73 -52 75 -63 14 -86 -50 -18 -86 -34 -167 -74 -173 -86 -200
-107 -200 -161 0 -30 5 -38 33 -51 37 -18 39 -17 162 56 28 16 59 34 70 40 11
6 40 22 64 35 24 14 49 25 55 25 6 0 44 14 85 30 40 17 86 30 103 30 16 0 41
6 56 13 15 8 87 19 160 26 106 10 162 10 280 0 81 -7 153 -17 160 -22 7 -6 32
-14 55 -18 110 -19 307 -112 424 -200 167 -125 307 -258 297 -282 -3 -9 -29
-28 -57 -42 -59 -30 -70 -36 -149 -87 -58 -39 -98 -81 -98 -104 0 -14 67 -64
86 -64 7 0 49 27 93 60 45 33 85 60 90 60 5 0 13 6 19 13 12 14 114 65 182 92
25 9 60 23 78 31 18 8 44 14 58 14 13 0 37 8 51 18 24 15 55 17 263 17 205 0
239 -2 267 -17 18 -10 41 -18 52 -18 11 0 37 -7 58 -16 21 -9 54 -24 73 -32
74 -32 153 -75 201 -110 167 -124 359 -353 359 -431 0 -11 4 -22 9 -25 4 -3
26 -41 46 -83 21 -43 59 -105 84 -138 24 -33 46 -62 47 -63 2 -2 19 -4 39 -4
38 0 60 18 71 59 4 16 -9 41 -53 100 -65 88 -81 111 -89 133 -3 8 -12 28 -20
43 -7 16 -14 36 -14 46 0 9 -7 26 -15 37 -8 10 -15 33 -15 49 0 17 -7 55 -15
85 -18 66 -20 292 -4 371 6 30 15 86 19 124 4 39 12 84 18 100 6 17 18 57 28
90 9 33 23 75 30 93 8 18 14 42 14 53 0 12 7 42 15 68 33 107 40 169 40 371 0
193 -9 290 -36 395 -6 22 -14 65 -19 95 -5 30 -20 87 -34 125 -14 39 -26 79
-26 91 0 28 30 54 62 54 21 0 28 -6 33 -30 4 -16 11 -32 16 -35 5 -4 9 -15 9
-27 0 -11 6 -32 14 -46 20 -38 66 -178 76 -234 5 -26 13 -56 19 -67 6 -11 11
-33 11 -50 0 -16 5 -41 11 -55 23 -49 102 -51 128 -2 13 24 9 48 -35 187 -8
26 -14 56 -14 67 0 11 -7 25 -15 32 -8 7 -15 22 -15 33 0 20 -53 168 -71 197
-5 8 -12 22 -15 30 -3 8 -16 36 -29 61 l-25 47 30 37 c40 50 46 79 26 110 -12
18 -25 25 -49 25 -39 0 -53 -11 -92 -69 -35 -52 -131 -140 -177 -162 -136 -65
-254 -65 -398 0 -19 9 -42 22 -51 29 -9 7 -50 17 -90 22 -84 10 -135 22 -164
37 -11 6 -38 19 -60 28 -22 10 -47 22 -55 26 -8 5 -24 13 -35 18 -11 5 -37 21
-58 35 -21 14 -40 26 -43 26 -15 0 -141 106 -171 144 -28 36 -36 56 -40 103
-6 75 -1 84 166 306 161 214 229 281 301 296 53 11 127 2 185 -24 17 -7 41
-18 55 -23 14 -6 57 -25 95 -42 39 -18 90 -41 115 -52 25 -11 52 -24 60 -29 8
-5 22 -12 30 -15 26 -10 278 -132 435 -212 71 -36 163 -104 199 -147 50 -59
106 -150 106 -174 0 -10 6 -24 14 -30 8 -6 16 -24 19 -39 8 -41 28 -113 42
-152 7 -19 18 -55 24 -80 7 -25 16 -58 21 -75 5 -16 14 -50 21 -75 6 -25 18
-58 24 -75 7 -16 21 -57 31 -90 10 -33 24 -69 31 -80 7 -11 13 -27 13 -36 0
-10 7 -30 15 -46 14 -27 27 -58 58 -138 21 -57 77 -194 92 -230 31 -71 77
-172 91 -198 8 -16 14 -35 14 -44 0 -8 6 -27 13 -41 23 -45 45 -96 50 -117 3
-11 22 -65 42 -120 20 -55 40 -116 44 -135 4 -19 15 -55 24 -80 8 -25 21 -75
27 -110 7 -36 18 -83 26 -105 8 -23 14 -59 14 -80 1 -22 5 -60 11 -85 5 -25
17 -119 25 -210 12 -131 13 -194 4 -306 -14 -195 -13 -292 5 -350 22 -72 20
-186 -4 -233 -38 -74 -166 -182 -277 -235 -21 -10 -46 -22 -54 -27 -8 -5 -22
-12 -30 -15 -15 -5 -40 -16 -113 -48 -21 -9 -45 -16 -53 -16 -9 0 -28 -6 -42
-14 -32 -16 -121 -33 -217 -41 -113 -9 -287 -36 -328 -51 -20 -8 -54 -14 -74
-14 -20 0 -62 -6 -92 -14 -92 -23 -234 -46 -287 -46 -27 0 -65 -5 -84 -11 -19
-6 -127 -16 -240 -23 -223 -12 -570 0 -623 22 -16 7 -48 12 -71 12 -24 0 -78
10 -122 21 -43 12 -104 27 -134 34 -60 14 -85 23 -201 66 -42 16 -83 29 -91
29 -9 0 -21 7 -28 15 -7 8 -18 15 -25 15 -13 0 -149 55 -175 71 -8 5 -22 12
-30 15 -8 3 -27 12 -42 20 -14 8 -33 14 -40 14 -8 0 -23 9 -33 20 -18 20 -18
25 10 120 10 30 22 76 27 101 l10 46 132 7 c124 6 132 8 154 32 25 29 28 52 8
79 -13 18 -29 19 -237 20 -142 1 -244 6 -279 14 -129 29 -185 43 -188 46 -6 6
8 44 21 57 14 15 47 64 64 97 47 87 59 107 71 114 6 4 12 12 12 17 0 5 27 47
60 93 65 92 74 126 38 151 -30 22 -60 20 -91 -5 -30 -22 -157 -211 -218 -322
-22 -40 -45 -81 -52 -92 -24 -39 -126 -171 -158 -205 -45 -46 -181 -167 -222
-196 -18 -13 -36 -27 -42 -32 -5 -4 -17 -11 -25 -15 -8 -4 -28 -15 -45 -25
-67 -41 -169 -92 -185 -92 -9 0 -21 -5 -27 -11 -6 -6 -26 -14 -44 -19 -19 -4
-47 -13 -64 -19 -82 -28 -150 -41 -255 -47 -65 -4 -127 -13 -142 -20 -34 -18
-46 -59 -27 -93 13 -23 22 -26 74 -29 77 -4 303 26 332 44 12 8 35 14 50 14
16 0 37 6 48 13 11 7 47 21 80 32 33 10 67 25 76 32 8 7 21 13 27 13 12 0 66
28 117 61 17 10 37 22 45 26 8 4 58 39 110 79 103 79 194 163 252 234 l36 44
64 -22 c80 -29 182 -52 231 -52 21 0 47 -4 57 -10 17 -9 17 -11 0 -67 -45
-141 -102 -296 -117 -318 -7 -11 -13 -25 -13 -32 0 -7 -13 -35 -30 -63 -16
-28 -30 -55 -30 -59 0 -12 -134 -212 -193 -288 -53 -70 -290 -311 -359 -367
-25 -20 -54 -48 -63 -62 -15 -23 -15 -27 5 -59 32 -51 76 -49 138 7 219 196
453 469 553 643 19 33 39 69 46 80 7 11 15 27 18 35 4 8 12 26 19 40 7 14 19
45 26 69 8 24 20 45 27 48 8 3 30 -6 51 -19 20 -14 63 -37 95 -51 31 -15 81
-38 110 -52 30 -14 59 -25 65 -25 6 0 32 -11 59 -24 26 -14 62 -27 78 -31 17
-4 44 -12 60 -20 41 -17 93 -35 134 -45 18 -5 38 -13 44 -19 6 -6 29 -11 51
-11 23 -1 52 -7 66 -15 14 -8 39 -14 55 -15 17 0 59 -7 95 -15 36 -8 106 -20
155 -27 117 -17 600 -17 715 -1 47 7 121 17 165 24 44 6 109 15 145 19 36 4
78 13 93 19 16 6 47 11 69 11 23 0 64 6 92 14 104 29 143 37 218 46 43 5 83
12 90 16 6 4 66 11 132 15 85 5 139 13 181 29 33 12 74 24 90 27 17 3 37 11
45 17 8 7 40 20 70 30 30 11 62 25 71 32 8 8 23 14 31 14 9 0 21 7 28 15 7 8
16 15 21 15 13 0 106 58 167 104 48 36 142 143 142 162 0 4 6 15 13 23 38 45
44 173 16 301 -14 60 -14 94 -4 395 5 136 3 225 -5 280 -7 44 -15 121 -20 170
-7 86 -15 130 -46 241 -8 28 -14 62 -14 75 -1 13 -7 35 -15 49 -8 14 -14 35
-15 47 0 13 -12 58 -26 100 -15 43 -30 92 -35 108 -13 52 -59 179 -74 207 -8
14 -15 35 -15 45 0 10 -4 23 -9 29 -5 5 -26 50 -46 99 -21 50 -51 118 -66 153
-16 34 -29 68 -29 75 0 6 -7 21 -15 31 -8 11 -15 26 -15 33 0 7 -13 41 -28 75
-29 64 -52 120 -79 193 -8 22 -21 53 -29 68 -8 16 -14 39 -14 51 0 12 -6 30
-13 41 -7 11 -21 49 -31 85 -10 36 -24 80 -32 98 -8 18 -14 41 -14 52 0 11 -6
34 -14 52 -8 18 -22 62 -31 98 -9 36 -23 80 -31 98 -8 18 -14 42 -14 52 0 27
-56 144 -98 205 -41 58 -150 167 -190 189 -15 9 -49 27 -77 41 -27 14 -57 30
-65 35 -8 5 -49 25 -90 45 -73 36 -92 45 -127 65 -10 5 -38 19 -63 30 -25 12
-52 26 -60 31 -8 5 -22 12 -30 15 -8 3 -30 12 -47 20 -18 8 -50 21 -70 30 -21
10 -45 21 -53 26 -8 4 -22 11 -30 14 -15 5 -45 18 -112 49 -123 55 -176 69
-258 72 -64 2 -95 -1 -125 -15z m-274 -1070 c61 -45 78 -54 177 -97 53 -24 52
-47 -3 -58 -126 -25 -155 -28 -193 -17 -88 23 -134 116 -92 185 12 19 27 35
34 35 7 0 42 -21 77 -48z"/>
<path d="M8155 4439 c-99 -67 -145 -121 -145 -170 0 -21 22 -38 28 -21 2 7 10
12 17 12 7 0 29 23 49 50 20 28 40 50 46 50 12 0 80 89 80 106 0 21 -9 17 -75
-27z"/>
<path d="M8060 4119 c0 -29 32 -52 140 -105 90 -43 120 -50 120 -25 0 23 -45
57 -131 99 -81 39 -129 51 -129 31z"/>
<path d="M8387 3992 c-35 -15 -38 -20 -32 -46 3 -16 13 -38 23 -49 27 -30 183
-128 242 -152 8 -4 22 -11 30 -16 8 -5 22 -12 30 -15 26 -10 84 -36 112 -51
14 -7 37 -13 50 -13 13 0 29 -5 36 -12 6 -6 30 -14 54 -18 24 -4 63 -12 88
-18 129 -31 164 -36 270 -35 156 0 415 53 502 103 10 6 24 10 31 10 20 0 63
51 71 82 6 24 2 30 -34 48 l-40 20 -67 -31 c-121 -54 -133 -59 -157 -59 -13 0
-43 -7 -66 -15 -32 -11 -89 -15 -235 -15 -149 0 -201 3 -228 15 -20 8 -50 15
-66 15 -17 0 -45 6 -63 14 -18 7 -51 19 -73 26 -22 6 -60 21 -85 32 -44 19
-66 31 -145 75 -22 12 -59 32 -82 44 -24 12 -43 26 -43 30 0 6 -77 51 -83 48
-1 0 -19 -8 -40 -17z"/>
<path d="M10134 3964 c-17 -7 -45 -26 -62 -42 -18 -17 -57 -44 -87 -61 -30
-17 -55 -36 -55 -41 0 -21 90 -11 130 15 22 14 43 25 47 25 13 0 52 46 62 72
14 36 2 47 -35 32z"/>
</g>
</svg>
