<?xml version="1.0" standalone="no"?>
<!DOCTYPE svg PUBLIC "-//W3C//DTD SVG 20010904//EN"
 "http://www.w3.org/TR/2001/REC-SVG-20010904/DTD/svg10.dtd">
<svg version="1.0" xmlns="http://www.w3.org/2000/svg"
 width="600.000000pt" height="327.000000pt" viewBox="0 0 600.000000 327.000000"
 preserveAspectRatio="xMidYMid meet">
<g transform="translate(0.000000,327.000000) scale(0.100000,-0.100000)"
fill="#000000" stroke="none">
<path d="M2707 2764 c-19 -19 26 -160 54 -169 16 -6 19 -16 19 -78 0 -40 -6
-83 -13 -97 -20 -39 -279 -165 -367 -178 -178 -26 -284 -145 -311 -346 -10
-77 -16 -95 -51 -145 -51 -73 -72 -121 -93 -217 -10 -43 -28 -121 -41 -172
-13 -52 -24 -104 -24 -115 0 -26 115 -203 174 -267 23 -25 77 -76 121 -114
123 -107 183 -166 231 -229 37 -48 44 -64 42 -95 -2 -27 1 -37 12 -37 10 0 18
19 27 65 6 36 25 108 42 161 31 95 31 96 67 102 73 12 169 -18 247 -78 34 -26
52 -34 59 -27 16 16 -44 66 -122 105 -56 28 -75 32 -142 32 l-77 0 -7 42 c-3
24 -3 55 2 70 4 16 10 66 13 113 l6 85 17 -30 c9 -16 42 -61 73 -100 32 -40
61 -88 68 -112 12 -45 37 -59 37 -20 -1 36 -34 97 -96 177 -32 41 -88 131
-123 200 -35 69 -83 161 -105 206 -23 44 -47 101 -52 126 l-10 45 56 -29 c45
-24 70 -30 122 -30 86 0 140 29 176 96 9 18 12 16 30 -20 11 -21 45 -76 75
-122 33 -49 64 -113 78 -157 23 -73 49 -99 49 -50 0 44 -39 130 -110 241 -71
111 -97 169 -144 327 -17 56 -37 99 -57 121 -31 36 -188 146 -208 146 -32 0
-1 -33 79 -85 50 -32 100 -74 114 -94 25 -37 76 -196 76 -239 0 -38 -31 -93
-64 -113 -43 -26 -133 -25 -190 2 -59 27 -89 62 -101 116 -5 26 -16 48 -24 51
-11 4 -12 -10 -7 -74 7 -75 5 -83 -24 -144 -42 -87 -100 -160 -166 -210 -53
-40 -69 -70 -39 -70 30 0 179 161 217 235 l36 69 7 -36 c10 -53 -47 -156 -136
-247 -65 -67 -82 -102 -59 -116 6 -3 13 1 16 9 3 9 9 16 13 16 13 0 71 -107
101 -183 42 -110 146 -267 176 -267 24 0 16 18 -35 85 -49 63 -94 149 -125
235 -9 25 -33 72 -55 105 l-39 59 56 61 c32 33 68 84 82 113 23 49 40 66 40
41 0 -6 25 -54 55 -107 71 -127 90 -200 80 -312 -5 -47 -9 -128 -10 -180 -2
-74 -9 -114 -32 -183 -17 -48 -32 -90 -36 -93 -3 -3 -17 12 -30 33 -14 22 -69
80 -123 129 -208 190 -252 237 -317 333 -70 103 -76 125 -57 191 6 19 24 93
40 165 33 143 61 207 122 278 49 58 97 83 211 113 l88 22 38 -52 c46 -62 160
-168 175 -163 21 7 10 26 -37 62 -26 20 -70 66 -97 102 l-50 66 32 20 c57 34
108 78 108 93 0 23 -19 16 -68 -25 -62 -51 -92 -66 -193 -91 -46 -12 -104 -30
-128 -41 -24 -11 -47 -17 -49 -14 -3 3 0 34 7 68 35 173 127 263 290 286 48 6
86 18 110 34 21 14 72 39 115 57 135 56 206 129 236 243 7 26 10 50 7 54 -15
14 -34 -9 -46 -56 -7 -28 -16 -53 -19 -55 -4 -2 -8 37 -10 87 -1 49 -5 94 -8
98 -9 15 -34 -3 -35 -25 -2 -31 -27 52 -28 92 -1 29 -17 42 -34 26z"/>
<path d="M3259 2738 c-1 -40 -26 -124 -28 -92 -1 12 -8 24 -16 28 -19 7 -25
-18 -28 -116 -2 -85 -8 -88 -30 -13 -8 31 -20 51 -31 53 -20 4 -20 -6 -1 -73
30 -102 106 -175 243 -230 35 -14 81 -37 102 -51 25 -17 63 -29 109 -35 39 -6
87 -17 107 -25 53 -22 129 -98 152 -152 22 -51 49 -168 41 -177 -3 -3 -23 3
-45 14 -21 10 -79 28 -128 40 -104 26 -135 40 -198 92 -42 36 -68 48 -68 33 0
-19 27 -47 79 -82 l60 -40 -49 -66 c-28 -36 -71 -81 -97 -101 -48 -37 -58 -55
-36 -62 13 -5 146 122 194 183 l24 32 92 -23 c111 -29 159 -58 218 -133 55
-69 77 -126 116 -297 50 -216 52 -198 -25 -312 -82 -122 -106 -148 -236 -260
-104 -90 -176 -162 -216 -218 l-21 -30 -33 100 c-27 81 -33 117 -35 195 -1 52
-6 129 -10 170 -10 109 11 188 87 323 l62 109 28 -55 c15 -30 52 -82 82 -114
l55 -60 -36 -54 c-20 -30 -51 -90 -68 -134 -42 -107 -56 -132 -115 -210 -27
-36 -50 -70 -50 -76 0 -24 31 -3 72 49 58 75 84 122 119 211 29 75 87 181 100
181 4 0 10 -7 13 -16 3 -8 10 -12 16 -9 23 14 7 48 -52 110 -63 66 -134 170
-145 213 -3 13 -1 33 4 45 9 19 13 15 43 -41 18 -35 51 -84 74 -109 43 -49
132 -123 147 -123 24 0 4 33 -38 65 -68 51 -128 126 -169 211 -34 70 -35 76
-28 150 6 63 5 76 -7 72 -8 -3 -18 -26 -23 -51 -15 -82 -101 -137 -212 -137
-91 0 -153 67 -140 154 8 62 54 195 78 227 12 16 61 54 110 85 48 30 88 62 88
70 0 23 -15 17 -104 -41 -114 -74 -140 -106 -172 -212 -56 -189 -59 -196 -141
-322 -66 -99 -100 -171 -109 -228 -5 -33 -3 -43 7 -43 9 0 23 28 36 70 13 42
50 113 91 178 38 59 72 116 76 127 l7 20 11 -20 c36 -67 89 -96 175 -97 54 0
76 5 125 31 38 19 58 25 55 16 -3 -7 -11 -33 -17 -57 -6 -24 -34 -86 -62 -138
-28 -52 -74 -140 -102 -195 -28 -55 -79 -136 -113 -181 -63 -81 -93 -137 -93
-174 0 -36 26 -21 38 22 6 25 36 73 68 113 31 39 63 84 72 100 l17 30 2 -50
c2 -27 8 -82 13 -122 6 -39 8 -86 5 -105 l-6 -33 -77 0 c-62 0 -88 -5 -133
-27 -69 -32 -144 -97 -130 -111 7 -7 23 -1 49 20 78 63 182 98 259 86 29 -5
33 -11 58 -81 15 -43 35 -115 45 -162 12 -58 22 -85 31 -85 10 0 14 12 14 40
0 62 78 156 259 310 62 52 128 115 147 138 65 81 159 230 159 253 0 13 -11 67
-24 121 -13 54 -32 132 -41 173 -20 88 -52 161 -99 221 -28 38 -35 57 -44 133
-27 205 -132 320 -321 350 -43 7 -91 22 -107 32 -16 11 -67 37 -114 57 -47 21
-98 48 -114 61 -28 21 -30 28 -34 109 -4 77 -3 87 12 87 22 0 53 71 58 130 2
36 0 45 -14 48 -14 3 -18 -4 -19 -30z"/>
<path d="M2985 1158 c-3 -13 -4 -90 -3 -173 3 -125 5 -150 18 -150 13 0 15 25
15 169 0 124 -3 170 -12 173 -7 3 -15 -6 -18 -19z"/>
<path d="M2984 627 c-3 -8 -4 -39 -2 -68 2 -40 7 -54 18 -54 20 0 22 126 3
132 -7 3 -15 -2 -19 -10z"/>
</g>
</svg>
