<?xml version="1.0" standalone="no"?>
<!DOCTYPE svg PUBLIC "-//W3C//DTD SVG 20010904//EN"
 "http://www.w3.org/TR/2001/REC-SVG-20010904/DTD/svg10.dtd">
<svg version="1.0" xmlns="http://www.w3.org/2000/svg"
 width="600.000000pt" height="327.000000pt" viewBox="0 0 600.000000 327.000000"
 preserveAspectRatio="xMidYMid meet">
<g transform="translate(0.000000,327.000000) scale(0.050000,-0.050000)"
fill="#000000" stroke="none">
<path d="M2668 5740 c0 -181 3 -256 7 -165 4 91 4 239 0 330 -4 91 -7 17 -7
-165z"/>
<path d="M11960 5510 c0 -49 9 -90 20 -90 11 0 20 41 20 90 0 50 -9 90 -20 90
-11 0 -20 -40 -20 -90z"/>
<path d="M2657 5200 c-4 -68 -1 -134 6 -145 7 -12 17 37 21 107 4 70 2 136 -6
145 -8 10 -17 -39 -21 -107z"/>
<path d="M5519 5246 c-52 -144 -71 -173 -173 -266 -143 -131 -324 -215 -536
-249 -480 -78 -744 -409 -700 -879 12 -123 8 -158 -25 -224 -70 -138 -109
-312 -125 -558 -9 -132 -35 -312 -58 -400 -56 -214 -57 -563 -3 -851 104 -551
120 -599 192 -571 42 16 36 78 -43 432 -77 344 -83 833 -13 1047 32 99 45 185
45 310 1 207 41 391 121 551 56 113 58 124 37 242 -56 323 120 644 408 743
229 80 966 -20 1160 -157 63 -45 114 -36 114 22 0 92 -213 180 -576 236 l-206
32 126 67 c199 105 357 302 363 455 4 88 -77 102 -108 18z"/>
<path d="M6371 5282 c-66 -107 142 -385 387 -519 l104 -57 -206 -32 c-363 -56
-576 -144 -576 -236 0 -58 51 -67 114 -22 206 145 983 243 1190 149 278 -126
434 -428 378 -731 -19 -104 -16 -121 37 -239 85 -187 121 -349 121 -543 0
-113 14 -222 41 -317 94 -333 89 -572 -23 -1129 -65 -322 -65 -366 1 -366 42
0 53 28 109 290 113 520 125 861 43 1180 -32 126 -51 254 -51 350 -1 186 -42
388 -111 537 -47 101 -51 128 -39 257 43 472 -219 799 -705 877 -317 52 -602
242 -682 455 -38 102 -100 147 -132 96z"/>
<path d="M4885 4469 c-47 -40 -80 -81 -74 -91 6 -10 2 -18 -10 -18 -11 0 -21
-23 -21 -50 0 -35 -15 -57 -48 -69 -33 -13 -51 -40 -61 -91 -7 -40 -28 -78
-47 -85 -19 -7 -50 -34 -70 -59 -20 -25 -50 -46 -65 -46 -16 0 -29 -12 -29
-28 0 -15 -36 -65 -80 -112 -130 -138 -101 -161 66 -52 220 143 440 425 513
657 36 114 19 124 -74 44z"/>
<path d="M7028 4476 c53 -268 487 -776 661 -776 48 0 -160 273 -244 321 -25
14 -45 38 -45 52 0 15 -14 27 -32 27 -21 0 -28 11 -20 31 6 18 3 26 -8 19 -11
-7 -20 -2 -20 11 0 14 17 19 40 13 22 -6 35 -2 29 8 -6 10 -24 18 -40 18 -16
0 -29 8 -29 18 0 10 -22 23 -50 30 -27 7 -49 19 -48 27 8 50 -9 90 -57 138
-30 31 -53 60 -52 67 2 6 -19 21 -47 34 -50 24 -50 23 -38 -38z"/>
<path d="M4714 3927 c-28 -28 -13 -128 40 -248 84 -194 19 -553 -151 -835
l-81 -134 30 -210 c34 -242 28 -318 -56 -660 -81 -327 -90 -587 -22 -596 51
-8 58 12 75 226 6 77 38 247 72 377 66 258 83 550 41 736 -21 90 -18 99 57
228 44 75 85 161 92 192 19 87 31 73 139 -159 l100 -214 -2 -290 c-2 -255 -8
-308 -53 -440 -113 -332 -142 -645 -62 -656 51 -7 58 12 78 194 7 71 35 206
62 300 27 95 57 204 68 242 82 304 41 655 -115 975 -91 187 -113 253 -121 362
l-10 133 68 -64 c145 -138 248 -151 595 -75 312 69 302 65 302 118 0 70 -28
71 -290 8 -455 -107 -584 -41 -740 383 -37 101 -81 142 -116 107z"/>
<path d="M7193 3877 c-15 -37 -42 -109 -61 -160 -114 -311 -283 -378 -702
-278 -242 58 -290 56 -290 -12 0 -39 54 -59 318 -117 335 -74 437 -61 574 72
l62 61 13 -61 c16 -82 -33 -236 -150 -463 -166 -325 -178 -681 -39 -1139 31
-104 64 -257 72 -340 16 -161 34 -200 92 -200 68 0 6 516 -81 679 -101 187
-67 685 64 960 93 196 106 209 124 124 7 -31 48 -117 92 -192 75 -129 78 -138
57 -228 -43 -189 -27 -473 41 -733 34 -132 67 -303 73 -380 16 -214 23 -234
74 -226 80 11 64 302 -37 666 -63 229 -72 364 -39 593 31 210 31 219 -6 272
-194 275 -286 706 -194 913 59 133 60 238 5 248 -25 5 -44 -13 -62 -59z"/>
<path d="M1787 960 c0 -82 3 -116 8 -75 4 41 4 109 0 150 -5 41 -8 8 -8 -75z"/>
</g>
</svg>
