<?xml version="1.0" standalone="no"?>
<!DOCTYPE svg PUBLIC "-//W3C//DTD SVG 20010904//EN"
 "http://www.w3.org/TR/2001/REC-SVG-20010904/DTD/svg10.dtd">
<svg version="1.0" xmlns="http://www.w3.org/2000/svg"
 width="295.000000pt" height="554.000000pt" viewBox="0 0 295.000000 554.000000"
 preserveAspectRatio="xMidYMid meet">
<g transform="translate(0.000000,554.000000) scale(0.066667,-0.066667)"
fill="#000000" stroke="none">
<path d="M1463 7538 c-140 -26 -294 -80 -536 -190 -110 -50 -284 -124 -387
-165 -223 -88 -327 -153 -389 -244 -68 -99 -62 -118 71 -248 64 -62 146 -154
183 -203 186 -253 485 -483 943 -727 388 -206 508 -283 644 -413 l80 -76 -46
-59 c-26 -32 -147 -170 -269 -307 -507 -566 -626 -776 -685 -1201 -69 -497
-192 -772 -580 -1293 -365 -492 -446 -813 -237 -951 109 -72 189 -85 563 -88
427 -3 418 -1 857 -211 414 -198 662 -236 869 -134 67 32 103 42 135 35 219
-48 408 15 445 148 33 119 20 139 -129 191 -309 109 -575 239 -760 373 -128
92 -495 473 -495 513 0 90 65 234 189 420 212 317 260 374 639 764 372 383
564 637 912 1208 303 496 345 651 230 836 -26 42 -52 92 -58 111 -97 306 -487
864 -827 1183 -321 301 -581 477 -891 601 -85 33 -195 81 -244 105 -48 24 -96
43 -105 43 -10 -1 -65 -10 -122 -21z m243 -159 c81 -33 197 -82 259 -108 528
-221 1208 -904 1488 -1496 41 -87 104 -218 141 -292 95 -194 86 -239 -108
-559 -488 -806 -640 -1008 -1164 -1546 -164 -167 -297 -310 -297 -317 0 -7
-74 -72 -165 -144 -180 -142 -209 -180 -86 -116 43 23 83 44 89 46 6 3 -20
-41 -58 -97 -80 -119 -148 -260 -163 -339 -6 -31 -16 -56 -23 -56 -15 0 -74
156 -74 197 0 50 -37 23 -42 -31 -13 -130 85 -282 361 -561 325 -329 525 -460
941 -617 224 -85 209 -76 200 -112 -17 -62 -171 -86 -310 -47 -68 19 -74 18
-164 -27 -246 -124 -415 -95 -916 161 -340 173 -343 173 -782 174 -416 1 -464
9 -541 101 -90 107 17 374 310 770 423 571 538 824 590 1294 33 293 47 319 56
103 11 -251 36 -254 47 -7 18 424 77 540 538 1062 322 364 316 360 466 360
125 0 128 16 12 60 -87 32 -114 54 -234 191 -76 87 -213 181 -472 323 -642
353 -933 571 -1129 845 -30 41 -96 111 -145 154 -106 92 -111 118 -35 181 76
63 79 62 210 -75 193 -202 559 -458 559 -390 0 7 -49 49 -109 93 -149 109
-191 145 -367 315 l-153 149 41 16 c22 9 84 32 138 50 54 19 189 77 300 128
261 121 370 162 518 195 66 15 121 28 123 29 3 0 70 -26 150 -60z"/>
<path d="M1965 7067 c0 -7 35 -31 78 -55 208 -113 409 -264 745 -560 115 -102
151 -128 162 -117 9 9 -191 235 -253 286 -19 16 -78 67 -132 114 -196 171
-600 394 -600 332z"/>
<path d="M3159 5782 c-26 -68 22 -202 73 -202 30 0 28 47 -5 142 -28 78 -52
100 -68 60z"/>
<path d="M3137 5440 c-88 -94 -46 -281 77 -350 26 -13 23 -22 -30 -121 -94
-176 -32 -152 94 36 76 114 77 117 8 138 -106 32 -154 133 -121 256 21 78 15
86 -28 41z"/>
<path d="M2609 4482 c-107 -231 -376 -535 -603 -684 -122 -79 -137 -111 -29
-63 35 16 63 25 63 20 0 -11 -108 -142 -187 -227 -84 -91 -69 -131 22 -56 12
10 42 35 65 55 24 19 91 99 149 176 58 78 174 209 257 293 166 166 238 274
290 435 42 126 24 160 -27 51z"/>
<path d="M888 2555 c-146 -72 -166 -279 -37 -380 31 -24 44 -49 50 -102 l8
-70 18 45 c9 24 27 62 39 84 20 38 19 41 -33 75 -128 83 -134 199 -18 304 84
75 73 93 -27 44z"/>
<path d="M415 1850 c-31 -31 -8 -130 41 -177 79 -74 355 -133 467 -100 57 17
40 24 -143 55 -233 41 -330 95 -330 182 0 47 -13 62 -35 40z"/>
<path d="M1937 1272 c109 -99 338 -137 444 -72 66 40 69 38 -105 38 -125 0
-170 6 -243 35 -145 56 -158 56 -96 -1z"/>
<path d="M4374 6917 c-44 -63 -41 -87 16 -157 l35 -42 0 128 c0 149 1 147 -51
71z"/>
<path d="M4396 1799 c-21 -100 -19 -176 6 -231 19 -42 21 -31 22 131 1 195 -4
212 -28 100z"/>
</g>
</svg>
