<?xml version="1.0" standalone="no"?>
<!DOCTYPE svg PUBLIC "-//W3C//DTD SVG 20010904//EN"
 "http://www.w3.org/TR/2001/REC-SVG-20010904/DTD/svg10.dtd">
<svg version="1.0" xmlns="http://www.w3.org/2000/svg"
 width="600.000000pt" height="327.000000pt" viewBox="0 0 600.000000 327.000000"
 preserveAspectRatio="xMidYMid meet">
<g transform="translate(0.000000,327.000000) scale(0.100000,-0.100000)"
fill="#000000" stroke="none">
<path d="M2764 2633 c-3 -10 -17 -42 -31 -71 -47 -96 -198 -186 -339 -202
-219 -24 -369 -220 -335 -437 7 -48 6 -64 -9 -93 -37 -73 -61 -176 -70 -300
-5 -69 -17 -150 -26 -180 -15 -44 -18 -89 -17 -225 0 -154 4 -185 34 -329 35
-163 52 -197 81 -168 10 10 9 29 -6 95 -66 307 -75 470 -35 612 14 49 25 126
29 200 8 122 22 184 63 274 21 44 22 55 13 110 -18 112 17 221 96 298 69 67
125 88 238 87 154 -2 400 -53 453 -94 28 -23 57 -17 57 10 0 47 -143 99 -344
125 -49 7 -49 7 2 35 77 42 129 87 158 135 30 51 45 101 37 121 -7 20 -43 18
-49 -3z"/>
<path d="M3186 2635 c-8 -21 16 -87 49 -135 31 -45 76 -81 148 -121 50 -27 50
-27 1 -34 -201 -26 -344 -78 -344 -125 0 -27 29 -33 57 -10 53 41 298 92 453
94 83 1 102 -2 150 -25 108 -51 175 -149 186 -271 3 -34 2 -82 -4 -104 -8 -37
-6 -50 19 -106 43 -97 59 -172 59 -273 0 -61 7 -110 20 -152 48 -154 46 -294
-6 -551 -38 -187 -39 -191 -19 -198 30 -12 43 19 76 181 44 220 51 403 19 525
-12 47 -26 137 -30 200 -9 131 -21 189 -60 276 -25 56 -27 66 -18 118 19 111
-25 250 -107 331 -58 58 -138 95 -232 106 -154 19 -310 122 -351 230 -20 56
-53 77 -66 44z"/>
<path d="M2467 2088 c-32 -62 -49 -102 -37 -88 11 14 35 53 51 87 41 81 58 96
106 90 64 -8 274 -66 299 -82 14 -9 34 -36 45 -60 19 -39 21 -59 18 -159 -2
-63 -1 -112 3 -109 5 2 8 61 8 131 0 194 -14 209 -253 266 -84 20 -159 36
-167 36 -9 0 -38 -45 -73 -112z"/>
<path d="M3280 2161 c-227 -56 -240 -70 -240 -263 0 -70 3 -129 8 -131 4 -3 5
38 3 91 -4 114 11 191 42 220 21 20 116 56 176 67 14 3 51 12 81 20 84 23 105
20 134 -18 15 -19 26 -41 26 -50 0 -10 4 -17 9 -17 5 0 14 -12 20 -27 6 -16
21 -39 32 -53 11 -14 -5 26 -37 88 -52 100 -61 112 -83 111 -15 -1 -91 -17
-171 -38z"/>
<path d="M2360 1960 c-17 -11 -8 -68 21 -127 18 -38 21 -55 15 -110 -14 -131
-46 -229 -106 -323 -29 -45 -29 -45 -14 -140 19 -116 14 -184 -27 -340 -38
-144 -50 -286 -25 -296 30 -12 43 13 49 99 3 45 19 136 36 202 33 129 41 260
21 364 -9 51 -9 54 30 118 21 35 42 78 45 94 4 16 10 29 13 29 13 0 92 -176
103 -230 18 -87 6 -260 -25 -358 -29 -88 -56 -225 -56 -280 0 -35 23 -53 43
-33 7 7 17 53 24 104 6 51 23 128 37 172 37 113 52 260 38 369 -9 70 -20 104
-58 179 -63 123 -84 188 -77 232 6 35 6 35 44 1 72 -66 126 -69 329 -17 92 23
105 29 108 49 4 29 -18 29 -154 -3 -168 -40 -207 -33 -277 44 -42 46 -70 98
-86 158 -12 43 -28 57 -51 43z"/>
<path d="M3613 1962 c-5 -4 -20 -35 -33 -70 -27 -73 -80 -150 -125 -181 -42
-29 -102 -27 -246 8 -63 15 -120 26 -127 23 -20 -6 -13 -42 11 -52 35 -14 253
-60 287 -60 43 0 99 25 136 61 31 30 31 30 38 -3 8 -42 -15 -110 -77 -234 -38
-74 -48 -106 -58 -180 -14 -110 0 -258 31 -349 26 -72 50 -193 50 -245 0 -40
20 -66 45 -56 29 11 11 157 -40 318 -32 99 -43 261 -26 353 12 63 102 257 109
234 9 -36 47 -116 69 -150 23 -35 24 -42 14 -89 -21 -98 -14 -234 20 -365 17
-66 33 -157 36 -202 6 -86 19 -111 49 -99 25 10 12 152 -27 301 -36 136 -42
255 -20 366 13 65 13 65 -29 132 -49 78 -75 154 -91 270 -11 81 -11 86 15 150
14 36 26 77 26 90 0 25 -19 40 -37 29z"/>
</g>
</svg>
