<?xml version="1.0" standalone="no"?>
<!DOCTYPE svg PUBLIC "-//W3C//DTD SVG 20010904//EN"
 "http://www.w3.org/TR/2001/REC-SVG-20010904/DTD/svg10.dtd">
<svg version="1.0" xmlns="http://www.w3.org/2000/svg"
 width="600.000000pt" height="327.000000pt" viewBox="0 0 600.000000 327.000000"
 preserveAspectRatio="xMidYMid meet">
<g transform="translate(0.000000,327.000000) scale(0.050000,-0.050000)"
fill="#000000" stroke="none">
<path d="M5410 5221 c-22 -37 6 -55 130 -81 442 -94 638 -549 474 -1100 -28
-93 -43 -173 -33 -176 10 -4 24 -9 32 -10 7 -2 24 27 36 64 l24 69 54 -191
c67 -237 113 -493 113 -631 0 -104 -26 -140 -49 -67 -20 62 -68 93 -83 54 -13
-35 71 -162 245 -366 77 -91 158 -231 285 -491 168 -345 378 -681 440 -705 64
-25 57 41 -14 129 -152 188 -266 386 -403 697 -88 202 -201 380 -298 472 l-62
58 1 222 c1 234 -23 374 -116 672 -48 154 -53 201 -55 500 l-1 330 -66 140
c-72 153 -135 230 -245 300 -126 80 -384 150 -409 111z"/>
<path d="M5100 4554 c0 -14 19 -79 43 -145 34 -93 46 -190 59 -449 22 -461 59
-581 289 -928 59 -89 118 -207 132 -262 14 -55 44 -127 67 -160 23 -33 53 -86
67 -118 67 -154 210 -335 405 -512 329 -300 533 -511 577 -599 49 -95 113
-114 92 -26 -23 95 -114 205 -341 413 -338 310 -494 471 -575 595 -87 132 -88
137 -35 123 77 -20 42 54 -51 109 -89 54 -124 113 -111 192 3 21 -17 120 -45
220 -27 101 -56 217 -62 258 -18 109 -57 96 -42 -14 11 -85 33 -154 99 -321
36 -90 33 -87 -153 207 -183 287 -214 394 -235 803 -10 182 -28 360 -41 396
-35 99 -19 93 97 -38 116 -128 104 -90 163 -528 26 -188 69 -285 190 -427 95
-111 154 -260 181 -460 11 -82 24 -110 52 -118 21 -5 43 -33 50 -62 21 -101
99 -252 206 -402 155 -218 466 -583 490 -575 47 16 25 59 -112 217 -246 282
-517 662 -491 689 11 11 196 -107 259 -167 57 -53 125 -50 104 4 -7 17 -81 75
-165 130 -84 54 -179 120 -210 146 l-57 46 32 202 c93 587 -39 959 -417 1176
-123 71 -250 188 -343 314 -70 95 -168 137 -168 71z m631 -545 c175 -128 291
-548 247 -894 -25 -201 -48 -233 -67 -91 -17 131 -76 267 -149 346 -135 145
-172 234 -202 487 -11 95 -26 199 -33 231 l-12 58 78 -46 c42 -26 105 -67 138
-91z"/>
</g>
</svg>
